<?xml version="1.0" encoding="utf-8"?>
<!-- Generator: Adobe Illustrator 17.0.0, SVG Export Plug-In . SVG Version: 6.00 Build 0)  -->
<!DOCTYPE svg PUBLIC "-//W3C//DTD SVG 1.1//EN" "http://www.w3.org/Graphics/SVG/1.1/DTD/svg11.dtd">
<svg version="1.1" id="Capa_1" xmlns="http://www.w3.org/2000/svg" xmlns:xlink="http://www.w3.org/1999/xlink" x="0px" y="0px"
	 width="60px" height="60px" viewBox="0 0 60 60" enable-background="new 0 0 60 60" xml:space="preserve">
<path fill="#BB4E42" d="M56.096,43.615h-5.219c2.496-3.858,4.085-8.623,4.085-13.615c0-4.992-1.588-9.758-4.085-13.615h5.219
	C58.138,20.469,59.5,25.008,59.5,30C59.5,34.992,58.365,39.531,56.096,43.615z M27.731,50.423v-4.538h4.538v4.538H27.731z
	 M43.615,59.5H18.654c-1.362,0-2.269-0.908-2.269-2.269s0.908-2.269,2.269-2.269h24.962V5.038H16.385v43.115
	c0,1.362-0.908,2.269-2.269,2.269s-2.269-0.908-2.269-2.269V5.038c0-2.496,2.042-4.538,4.538-4.538h27.231
	c2.496,0,4.538,2.042,4.538,4.538v49.923C48.154,57.458,46.112,59.5,43.615,59.5z M3.904,43.615C1.862,39.531,0.5,34.992,0.5,30
	s1.135-9.531,3.404-13.615h5.219C6.627,20.242,5.038,25.008,5.038,30c0,4.992,1.588,9.758,4.085,13.615H3.904z"/>
</svg>
