<?xml version="1.0" encoding="utf-8"?>
<!-- Generator: Adobe Illustrator 17.0.0, SVG Export Plug-In . SVG Version: 6.00 Build 0)  -->
<!DOCTYPE svg PUBLIC "-//W3C//DTD SVG 1.1//EN" "http://www.w3.org/Graphics/SVG/1.1/DTD/svg11.dtd">
<svg version="1.1" id="Capa_1" xmlns="http://www.w3.org/2000/svg" xmlns:xlink="http://www.w3.org/1999/xlink" x="0px" y="0px"
	 width="60px" height="60px" viewBox="0 0 60 60" enable-background="new 0 0 60 60" xml:space="preserve">
<path fill="#BB4E42" d="M29.887,59.387C13.611,59.387,0.5,55.77,0.5,51.475c0-2.939,5.877-5.425,14.693-6.782l3.617,3.843
	c-8.138,0.452-12.433,1.808-12.433,2.939c0,1.808,9.72,3.391,23.51,3.391s23.736-1.582,23.736-3.391
	c0-1.356-4.295-2.487-12.433-2.939l3.617-3.843C53.623,46.05,59.5,48.536,59.5,51.475C59.274,55.77,46.163,59.387,29.887,59.387z
	 M38.929,20.958c0,4.973-4.069,9.042-9.042,9.042s-9.042-4.069-9.042-9.042s4.069-9.042,9.042-9.042
	C34.86,11.916,38.929,15.985,38.929,20.958z M25.366,20.958c0,2.487,2.034,4.521,4.521,4.521s4.521-2.034,4.521-4.521
	s-2.034-4.521-4.521-4.521S25.366,18.471,25.366,20.958z M32.148,48.084l-2.261,2.261l-2.261-2.261
	c-0.678-0.904-14.92-13.111-17.632-23.736c-0.226-0.678-0.678-3.165,1.808-3.391c2.034-0.226,2.487,2.261,2.487,2.261
	c1.808,7.912,11.755,15.598,15.598,20.345c4.069-5.199,15.824-13.789,15.824-22.605c0-10.172-5.877-15.824-15.824-15.824
	c-7.46,0-12.659,3.165-14.693,9.042c0,0-0.904,2.713-2.487,2.261c-1.808-0.452-2.034-1.808-1.356-3.843
	C14.515,5.36,21.523,0.613,29.887,0.613c11.529,0,20.345,8.59,20.345,20.345C50.232,32.261,33.052,47.18,32.148,48.084z"/>
</svg>
