<?xml version="1.0" encoding="utf-8"?>
<!-- Generator: Adobe Illustrator 17.0.0, SVG Export Plug-In . SVG Version: 6.00 Build 0)  -->
<!DOCTYPE svg PUBLIC "-//W3C//DTD SVG 1.1//EN" "http://www.w3.org/Graphics/SVG/1.1/DTD/svg11.dtd">
<svg version="1.1" id="Capa_1" xmlns="http://www.w3.org/2000/svg" xmlns:xlink="http://www.w3.org/1999/xlink" x="0px" y="0px"
	 width="60px" height="60px" viewBox="0 0 60 60" enable-background="new 0 0 60 60" xml:space="preserve">
<path fill="#BB4E42" d="M27.731,32.269v4.538h-4.538v-4.538C23.193,32.269,27.731,32.269,27.731,32.269z M36.808,32.269v4.538H32.27
	v-4.538C32.27,32.269,36.808,32.269,36.808,32.269z M45.885,32.269v4.538h-4.538v-4.538C41.347,32.269,45.885,32.269,45.885,32.269z
	 M14.115,32.269h4.538v4.538h-4.538V32.269z M45.885,48.154h-31.77v-4.538h31.769L45.885,48.154L45.885,48.154z M54.962,59.5H5.038
	c-2.496,0-4.538-2.042-4.538-4.538v-29.5c0-2.496,2.042-4.538,4.538-4.538h9.077v-6.808c0-2.496,2.042-4.538,4.538-4.538h27.231V0.5
	h4.538v9.077c0,2.496-2.042,4.538-4.538,4.538h-27.23v11.346H5.038v29.5h49.923v-29.5h-29.5l0,0l0,0
	c-1.362,0-2.269-0.908-2.269-2.269c0-1.362,0.908-2.269,2.269-2.269l0,0l0,0h29.5c2.496,0,4.538,2.042,4.538,4.538v29.5
	C59.5,57.458,57.458,59.5,54.962,59.5z"/>
</svg>
