<?xml version="1.0" encoding="utf-8"?>
<!-- Generator: Adobe Illustrator 17.0.0, SVG Export Plug-In . SVG Version: 6.00 Build 0)  -->
<!DOCTYPE svg PUBLIC "-//W3C//DTD SVG 1.1//EN" "http://www.w3.org/Graphics/SVG/1.1/DTD/svg11.dtd">
<svg version="1.1" id="Capa_1" xmlns="http://www.w3.org/2000/svg" xmlns:xlink="http://www.w3.org/1999/xlink" x="0px" y="0px"
	 width="60px" height="60px" viewBox="0 0 60 60" enable-background="new 0 0 60 60" xml:space="preserve">
<path fill="#BB4E42" d="M54.753,59.392H5.021c-2.487,0-4.521-2.034-4.521-4.521V34.526c0-2.487,2.034-4.521,4.521-4.521h22.605
	v-4.521V8.756l-4.295,4.295c-0.904,0.904-2.487,0.904-3.391,0s-0.904-2.487,0-3.391l8.364-8.364
	c0.678-0.678,1.582-0.904,2.487-0.452c0.678,0.452,8.816,8.59,8.816,8.59c0.904,0.904,0.904,2.261,0,3.165
	c-0.904,0.904-2.261,0.904-3.165,0L32.374,8.53v21.701l0,0l0,0c0,2.487-0.904,4.521-4.521,4.521H5.247v20.345h49.732V34.752H39.155
	c-1.356,0-2.261-0.904-2.261-2.261s0.904-2.261,2.261-2.261h15.824c2.487,0,4.521,2.034,4.521,4.521v20.345
	C59.274,57.357,57.239,59.392,54.753,59.392z"/>
</svg>
