<?xml version="1.0" encoding="utf-8"?>
<!-- Generator: Adobe Illustrator 17.0.0, SVG Export Plug-In . SVG Version: 6.00 Build 0)  -->
<!DOCTYPE svg PUBLIC "-//W3C//DTD SVG 1.1//EN" "http://www.w3.org/Graphics/SVG/1.1/DTD/svg11.dtd">
<svg version="1.1" id="Capa_1" xmlns="http://www.w3.org/2000/svg" xmlns:xlink="http://www.w3.org/1999/xlink" x="0px" y="0px"
	 width="60px" height="60px" viewBox="0 0 60 60" enable-background="new 0 0 60 60" xml:space="preserve">
<path fill="#BB4E42" d="M54.962,59.5H5.038c-2.496,0-2.95-1.588-2.269-4.538l2.269-18.154C5.492,34.766,6.4,32.27,9.576,32.27
	h13.615v4.538H9.577L7.308,54.962h45.385l-2.269-18.154H36.808V32.27h13.615c3.177,0,4.085,2.496,4.538,4.538l2.269,18.154
	C57.912,57.912,57.458,59.5,54.962,59.5z M32.269,27.504v19.515c0,0.681-0.454,1.135-1.135,1.135h-2.269
	c-0.681,0-1.135-0.454-1.135-1.135V24.327c0-0.681,0.454-1.135,1.135-1.135h2.042c0.681,0,1.588-0.227,1.588-0.227
	c3.631-1.135,6.581-4.538,6.581-8.85c0-4.992-4.085-9.077-9.077-9.077s-9.077,4.085-9.077,9.077c0,1.815,0.681,3.631,1.588,4.992
	c0,0,0.681,1.135,0.681,1.815c0,1.362-0.908,2.269-2.269,2.269c-0.908,0-1.588-0.454-2.042-1.362c0,0-2.496-2.723-2.496-7.715
	C16.385,6.627,22.512,0.5,30,0.5s13.615,6.127,13.615,13.615C43.615,20.923,38.623,26.369,32.269,27.504z"/>
</svg>
