<?xml version="1.0" encoding="utf-8"?>
<!-- Generator: Adobe Illustrator 17.0.0, SVG Export Plug-In . SVG Version: 6.00 Build 0)  -->
<!DOCTYPE svg PUBLIC "-//W3C//DTD SVG 1.1//EN" "http://www.w3.org/Graphics/SVG/1.1/DTD/svg11.dtd">
<svg version="1.1" id="Capa_1" xmlns="http://www.w3.org/2000/svg" xmlns:xlink="http://www.w3.org/1999/xlink" x="0px" y="0px"
	 width="60px" height="60px" viewBox="0 0 60 60" enable-background="new 0 0 60 60" xml:space="preserve">
<path fill="#BB4E42" d="M54.961,59.5H43.616v-4.539h11.346V43.616H59.5v11.346C59.5,57.457,57.457,59.5,54.961,59.5z M45.885,50.423
	H18.654c-1.362,0-2.269-0.907-2.269-2.269s0.907-2.269,2.269-2.269h27.231v-31.77h-31.77v24.962c0,1.362-0.907,2.269-2.269,2.269
	s-2.269-0.907-2.269-2.269V14.115c0-2.496,2.043-4.539,4.539-4.539h31.769c2.496,0,4.539,2.043,4.539,4.539v31.769
	C50.424,48.381,48.381,50.423,45.885,50.423z M5.039,5.039v11.346H0.5V5.039C0.5,2.543,2.543,0.5,5.039,0.5h11.346v4.539H5.039z"/>
</svg>
