<?xml version="1.0" encoding="utf-8"?>
<!-- Generator: Adobe Illustrator 17.0.0, SVG Export Plug-In . SVG Version: 6.00 Build 0)  -->
<!DOCTYPE svg PUBLIC "-//W3C//DTD SVG 1.1//EN" "http://www.w3.org/Graphics/SVG/1.1/DTD/svg11.dtd">
<svg version="1.1" id="Capa_1" xmlns="http://www.w3.org/2000/svg" xmlns:xlink="http://www.w3.org/1999/xlink" x="0px" y="0px"
	 width="57px" height="50px" viewBox="0 0 57 50" enable-background="new 0 0 57 50" xml:space="preserve">
<path fill="#2D9280" d="M47.2,15.36H35.604v2.814H47.2V15.36z M41.481,25.027c-1.362,0-2.466,0.397-3.314,1.192
	c-0.847,0.794-1.317,1.872-1.407,3.234h9.259C45.747,26.502,44.234,25.027,41.481,25.027z M41.844,38.302
	c0.953,0,1.876-0.242,2.769-0.726c0.892-0.484,1.468-1.142,1.725-1.974h5.015c-1.513,4.645-4.743,6.967-9.69,6.967
	c-3.238,0-5.813-0.998-7.727-2.995c-1.914-1.997-2.871-4.622-2.871-7.875c0-3.147,0.987-5.761,2.961-7.841s4.52-3.12,7.636-3.12
	c2.088,0,3.907,0.514,5.457,1.543c1.551,1.029,2.708,2.383,3.472,4.062s1.146,3.555,1.146,5.628c0,0.257-0.015,0.612-0.046,1.066
	H36.76c0,1.679,0.435,2.977,1.305,3.892C38.934,37.845,40.194,38.302,41.844,38.302L41.844,38.302z M11.549,37.168h6.717
	c3.101,0,4.652-1.263,4.652-3.79c0-2.723-1.505-4.085-4.516-4.085h-6.853V37.168L11.549,37.168z M11.549,24.982h6.377
	c1.18,0,2.114-0.276,2.803-0.828s1.033-1.411,1.033-2.576c0-2.179-1.437-3.268-4.311-3.268h-5.9L11.549,24.982L11.549,24.982z
	 M5.262,13.431h13.48c1.316,0,2.489,0.106,3.518,0.318s1.986,0.571,2.871,1.078c0.885,0.506,1.566,1.237,2.042,2.19
	c0.477,0.954,0.715,2.119,0.715,3.495c0,2.738-1.301,4.728-3.903,5.968c1.725,0.484,3.026,1.354,3.903,2.61
	c0.877,1.256,1.316,2.799,1.316,4.629c0,1.135-0.185,2.168-0.556,3.098s-0.87,1.713-1.498,2.349
	c-0.628,0.635-1.373,1.173-2.235,1.611c-0.862,0.439-1.777,0.756-2.746,0.953c-0.968,0.197-1.982,0.295-3.041,0.295H5.262V13.432
	V13.431z"/>
</svg>
