<?xml version="1.0" encoding="utf-8"?>
<!-- Generator: Adobe Illustrator 17.0.0, SVG Export Plug-In . SVG Version: 6.00 Build 0)  -->
<!DOCTYPE svg PUBLIC "-//W3C//DTD SVG 1.1//EN" "http://www.w3.org/Graphics/SVG/1.1/DTD/svg11.dtd">
<svg version="1.1" id="Capa_1" xmlns="http://www.w3.org/2000/svg" xmlns:xlink="http://www.w3.org/1999/xlink" x="0px" y="0px"
	 width="43px" height="50px" viewBox="0 0 43 50" enable-background="new 0 0 43 50" xml:space="preserve">
<path fill="#2D9280" d="M37.968,27.401c0,3.588-1.047,6.815-3.142,9.682c-2.094,2.867-4.8,4.85-8.116,5.951
	c-0.386,0.072-0.668,0.022-0.847-0.15s-0.268-0.386-0.268-0.643v-4.524c0-1.386-0.372-2.401-1.115-3.045
	c0.815-0.086,1.547-0.214,2.198-0.386s1.323-0.45,2.016-0.836s1.272-0.861,1.737-1.426c0.465-0.565,0.844-1.315,1.137-2.252
	s0.44-2.012,0.44-3.227c0-1.73-0.565-3.202-1.694-4.417c0.529-1.301,0.472-2.759-0.171-4.374c-0.4-0.129-0.979-0.05-1.737,0.236
	s-1.415,0.6-1.973,0.944l-0.815,0.515c-1.33-0.371-2.702-0.557-4.117-0.557s-2.787,0.186-4.117,0.557
	c-0.229-0.157-0.532-0.35-0.911-0.579s-0.976-0.504-1.791-0.825c-0.815-0.322-1.429-0.418-1.844-0.29
	c-0.629,1.615-0.679,3.074-0.15,4.374c-1.129,1.215-1.694,2.688-1.694,4.417c0,1.215,0.147,2.287,0.44,3.216
	c0.293,0.929,0.668,1.679,1.126,2.252c0.458,0.572,1.033,1.051,1.726,1.436c0.693,0.385,1.365,0.664,2.016,0.836
	c0.651,0.172,1.383,0.301,2.198,0.386c-0.572,0.514-0.922,1.251-1.051,2.209c-0.3,0.143-0.622,0.25-0.965,0.322
	s-0.751,0.108-1.222,0.108s-0.94-0.154-1.405-0.461s-0.862-0.754-1.19-1.34c-0.272-0.458-0.618-0.829-1.04-1.115
	c-0.422-0.286-0.775-0.458-1.061-0.515l-0.429-0.065c-0.3,0-0.507,0.032-0.622,0.097c-0.114,0.065-0.15,0.147-0.108,0.247
	c0.043,0.1,0.107,0.2,0.193,0.3c0.086,0.1,0.179,0.186,0.279,0.257l0.15,0.108c0.315,0.143,0.626,0.414,0.933,0.815
	c0.307,0.4,0.533,0.765,0.676,1.094l0.214,0.493c0.186,0.543,0.501,0.983,0.944,1.319s0.922,0.551,1.436,0.643
	c0.514,0.093,1.011,0.143,1.49,0.15c0.479,0.007,0.876-0.018,1.19-0.075l0.493-0.086c0,0.543,0.004,1.179,0.011,1.908
	s0.011,1.115,0.011,1.158c0,0.257-0.093,0.472-0.279,0.643s-0.472,0.222-0.858,0.15c-3.316-1.101-6.022-3.084-8.116-5.951
	s-3.142-6.094-3.142-9.682c0-2.987,0.736-5.743,2.209-8.266s3.47-4.521,5.994-5.994s5.279-2.209,8.266-2.209
	s5.743,0.736,8.266,2.209s4.521,3.47,5.994,5.994c1.472,2.523,2.209,5.279,2.209,8.266L37.968,27.401z"/>
</svg>
