<?xml version="1.0" encoding="utf-8"?>
<!-- Generator: Adobe Illustrator 17.0.0, SVG Export Plug-In . SVG Version: 6.00 Build 0)  -->
<!DOCTYPE svg PUBLIC "-//W3C//DTD SVG 1.1//EN" "http://www.w3.org/Graphics/SVG/1.1/DTD/svg11.dtd">
<svg version="1.1" id="Capa_1" xmlns="http://www.w3.org/2000/svg" xmlns:xlink="http://www.w3.org/1999/xlink" x="0px" y="0px"
	 width="46px" height="50px" viewBox="0 0 46 50" enable-background="new 0 0 46 50" xml:space="preserve">
<path fill="#2D9280" d="M40.798,15.4c-1.023,1.496-2.26,2.771-3.711,3.825c0.015,0.214,0.023,0.535,0.023,0.962
	c0,1.985-0.29,3.966-0.87,5.944c-0.58,1.978-1.462,3.875-2.646,5.692s-2.592,3.424-4.226,4.821s-3.604,2.512-5.91,3.344
	s-4.772,1.249-7.398,1.249c-4.138,0-7.925-1.107-11.361-3.321c0.535,0.061,1.13,0.092,1.786,0.092c3.436,0,6.498-1.054,9.185-3.161
	c-1.604-0.031-3.039-0.523-4.307-1.478s-2.138-2.172-2.611-3.653c0.504,0.077,0.97,0.115,1.397,0.115
	c0.657,0,1.306-0.084,1.947-0.252c-1.71-0.351-3.127-1.203-4.249-2.554c-1.122-1.351-1.684-2.92-1.684-4.707v-0.092
	c1.038,0.58,2.153,0.893,3.344,0.939c-1.008-0.672-1.81-1.55-2.405-2.634s-0.893-2.26-0.893-3.527c0-1.344,0.336-2.588,1.008-3.734
	c1.848,2.275,4.096,4.096,6.746,5.463s5.486,2.127,8.51,2.279c-0.122-0.58-0.183-1.145-0.183-1.695c0-2.046,0.722-3.791,2.165-5.234
	s3.188-2.165,5.234-2.165c2.138,0,3.94,0.779,5.406,2.336c1.664-0.321,3.23-0.916,4.696-1.786c-0.565,1.756-1.649,3.115-3.252,4.078
	c1.42-0.153,2.84-0.534,4.261-1.145L40.798,15.4z"/>
</svg>
