<?xml version="1.0" encoding="utf-8"?>
<!-- Generated by IcoMoon.io -->
<!DOCTYPE svg PUBLIC "-//W3C//DTD SVG 1.1//EN" "http://www.w3.org/Graphics/SVG/1.1/DTD/svg11.dtd">
<svg version="1.1" xmlns="http://www.w3.org/2000/svg" xmlns:xlink="http://www.w3.org/1999/xlink" width="65" height="70" viewBox="0 0 65 70">
<path fill="#d74d3f" d="M55 38.75v18.75q0 1.016-0.742 1.758t-1.758 0.742h-15v-15h-10v15h-15q-1.016 0-1.758-0.742t-0.742-1.758v-18.75q0-0.039 0.020-0.117t0.020-0.117l22.461-18.516 22.461 18.516q0.039 0.078 0.039 0.234zM63.711 36.055l-2.422 2.891q-0.312 0.352-0.82 0.43h-0.117q-0.508 0-0.82-0.273l-27.031-22.539-27.031 22.539q-0.469 0.312-0.937 0.273-0.508-0.078-0.82-0.43l-2.422-2.891q-0.312-0.391-0.273-0.918t0.43-0.84l28.086-23.398q1.25-1.016 2.969-1.016t2.969 1.016l9.531 7.969v-7.617q0-0.547 0.352-0.898t0.898-0.352h7.5q0.547 0 0.898 0.352t0.352 0.898v15.938l8.555 7.109q0.391 0.312 0.43 0.84t-0.273 0.918z"></path>
</svg>
