<?xml version="1.0" encoding="utf-8"?>
<!-- Generated by IcoMoon.io -->
<!DOCTYPE svg PUBLIC "-//W3C//DTD SVG 1.1//EN" "http://www.w3.org/Graphics/SVG/1.1/DTD/svg11.dtd">
<svg version="1.1" xmlns="http://www.w3.org/2000/svg" xmlns:xlink="http://www.w3.org/1999/xlink" width="70" height="70" viewBox="0 0 70 70">
<path fill="#d74d3f" d="M65 58.75v-30q-1.25 1.406-2.695 2.578-10.469 8.047-16.641 13.203-1.992 1.68-3.242 2.617t-3.379 1.895-4.004 0.957h-0.078q-1.875 0-4.004-0.957t-3.379-1.895-3.242-2.617q-6.172-5.156-16.641-13.203-1.445-1.172-2.695-2.578v30q0 0.508 0.371 0.879t0.879 0.371h57.5q0.508 0 0.879-0.371t0.371-0.879zM65 17.695v-0.957t-0.020-0.508-0.117-0.488-0.215-0.352-0.352-0.293-0.547-0.098h-57.5q-0.508 0-0.879 0.371t-0.371 0.879q0 6.563 5.742 11.094 7.539 5.937 15.664 12.383 0.234 0.195 1.367 1.152t1.797 1.465 1.738 1.23 1.973 1.074 1.68 0.352h0.078q0.781 0 1.68-0.352t1.973-1.074 1.738-1.23 1.797-1.465 1.367-1.152q8.125-6.445 15.664-12.383 2.109-1.68 3.926-4.512t1.816-5.137zM70 16.25v42.5q0 2.578-1.836 4.414t-4.414 1.836h-57.5q-2.578 0-4.414-1.836t-1.836-4.414v-42.5q0-2.578 1.836-4.414t4.414-1.836h57.5q2.578 0 4.414 1.836t1.836 4.414z"></path>
</svg>
