<?xml version="1.0" encoding="utf-8"?>
<!-- Generator: Adobe Illustrator 17.0.0, SVG Export Plug-In . SVG Version: 6.00 Build 0)  -->
<!DOCTYPE svg PUBLIC "-//W3C//DTD SVG 1.1//EN" "http://www.w3.org/Graphics/SVG/1.1/DTD/svg11.dtd">
<svg version="1.1" id="Capa_1" xmlns="http://www.w3.org/2000/svg" xmlns:xlink="http://www.w3.org/1999/xlink" x="0px" y="0px"
	 width="45px" height="45px" viewBox="0 0 45 45" enable-background="new 0 0 45 45" xml:space="preserve">
<path fill="#D74D3F" d="M44,31.107v3.214c0,0.435-0.159,0.812-0.477,1.13s-0.695,0.477-1.13,0.477H10.25
	c-0.435,0-0.812-0.159-1.13-0.477s-0.477-0.695-0.477-1.13v-3.214c0-0.435,0.159-0.812,0.477-1.13
	c0.318-0.318,0.695-0.477,1.13-0.477h32.143c0.435,0,0.812,0.159,1.13,0.477S44,30.672,44,31.107z M44,21.464v3.214
	c0,0.435-0.159,0.812-0.477,1.13s-0.695,0.477-1.13,0.477H3.822c-0.435,0-0.812-0.159-1.13-0.477s-0.477-0.695-0.477-1.13v-3.214
	c0-0.435,0.159-0.812,0.477-1.13c0.318-0.318,0.695-0.477,1.13-0.477h38.571c0.435,0,0.812,0.159,1.13,0.477S44,21.029,44,21.464z
	 M44,11.821v3.214c0,0.435-0.159,0.812-0.477,1.13s-0.695,0.477-1.13,0.477H13.464c-0.435,0-0.812-0.159-1.13-0.477
	c-0.318-0.318-0.477-0.695-0.477-1.13v-3.214c0-0.435,0.159-0.812,0.477-1.13s0.695-0.477,1.13-0.477h28.929
	c0.435,0,0.812,0.159,1.13,0.477C43.841,11.009,44,11.386,44,11.821z"/>
</svg>
