<?xml version="1.0" encoding="utf-8"?>
<!-- Generated by IcoMoon.io -->
<!DOCTYPE svg PUBLIC "-//W3C//DTD SVG 1.1//EN" "http://www.w3.org/Graphics/SVG/1.1/DTD/svg11.dtd">
<svg version="1.1" xmlns="http://www.w3.org/2000/svg" xmlns:xlink="http://www.w3.org/1999/xlink" width="55" height="70" viewBox="0 0 55 70">
<path fill="#d74d3f" d="M55 48.437q0 1.055-0.391 2.754t-0.82 2.676q-0.82 1.953-4.766 4.141-3.672 1.992-7.266 1.992-1.055 0-2.051-0.137t-2.246-0.488-1.855-0.566-2.168-0.801-1.914-0.703q-3.828-1.367-6.836-3.242-5-3.086-10.332-8.418t-8.418-10.332q-1.875-3.008-3.242-6.836-0.117-0.352-0.703-1.914t-0.801-2.168-0.566-1.855-0.488-2.246-0.137-2.051q0-3.594 1.992-7.266 2.188-3.945 4.141-4.766 0.977-0.43 2.676-0.82t2.754-0.391q0.547 0 0.82 0.117 0.703 0.234 2.070 2.969 0.43 0.742 1.172 2.109t1.367 2.48 1.211 2.090q0.117 0.156 0.684 0.977t0.84 1.387 0.273 1.113q0 0.781-1.113 1.953t-2.422 2.148-2.422 2.070-1.113 1.797q0 0.352 0.195 0.879t0.332 0.801 0.547 0.937 0.449 0.742q2.969 5.352 6.797 9.18t9.18 6.797q0.078 0.039 0.742 0.449t0.937 0.547 0.801 0.332 0.879 0.195q0.703 0 1.797-1.113t2.070-2.422 2.148-2.422 1.953-1.113q0.547 0 1.113 0.273t1.387 0.84 0.977 0.684q0.977 0.586 2.090 1.211t2.48 1.367 2.109 1.172q2.734 1.367 2.969 2.070 0.117 0.273 0.117 0.82z"></path>
</svg>
